<svg width="10.16" height="24" viewBox="8.194 3 7.621 18" fill="none" xmlns="http://www.w3.org/2000/svg">
<path d="M8.70515 20.5C8.56991 17.8517 9.84484 16.1771 12.0006 15.3505C13.423 14.805 15.3154 13.9511 15.3056 12.0053C15.2994 10.7723 14.5204 9.97779 13.5908 9.41785M8.70515 3.5C8.60314 5.41723 9.24255 6.80345 10.4076 7.7501" stroke="currentColor" stroke-miterlimit="10" stroke-linecap="round"/>
<path d="M15.2949 20.5C15.3929 18.5807 14.7502 17.1729 13.5684 16.2285M15.2949 3.5C15.4367 6.16608 14.1448 7.80533 11.9994 8.66361C10.591 9.22702 8.70406 10.0836 8.69437 12.0053C8.68808 13.2545 9.46588 14.0538 10.4 14.6102" stroke="currentColor" stroke-miterlimit="10" stroke-linecap="round"/>
<path d="M10 19.5H14" stroke="currentColor" stroke-linecap="round"/>
<path d="M11 6H13" stroke="currentColor" stroke-linecap="round"/>
<path d="M10 4.5H14" stroke="currentColor" stroke-linecap="round"/>
<path d="M10.1113 12.0837H13.8891M11.0558 10.667H12.9447M11.0558 13.5003H12.9447" stroke="currentColor" stroke-linecap="round"/>
<path d="M11 18H13" stroke="currentColor" stroke-linecap="round"/>
</svg>