<svg width="24" height="24" viewBox="0 0 24 24" fill="none" xmlns="http://www.w3.org/2000/svg">
<path d="M8.5 11.5V10.5H15.5V11.5H8.5ZM8.5 7.5V6.5H15.5V7.5H8.5ZM6 14.5H13.5C13.9067 14.5 14.28 14.5883 14.62 14.765C14.9593 14.941 15.2513 15.1887 15.496 15.508L18 18.758V4.616C18 4.436 17.9423 4.28833 17.827 4.173C17.7117 4.05767 17.5643 4 17.385 4H6.615C6.43567 4 6.28833 4.05767 6.173 4.173C6.05767 4.28833 6 4.436 6 4.616V14.5ZM6.616 20H17.685L14.71 16.117C14.5587 15.9197 14.38 15.7673 14.174 15.66C13.9687 15.5533 13.744 15.5 13.5 15.5H6V19.385C6 19.5643 6.05767 19.7117 6.173 19.827C6.28833 19.9423 6.436 20 6.616 20ZM17.385 21H6.615C6.155 21 5.771 20.846 5.463 20.538C5.155 20.23 5.00067 19.8457 5 19.385V4.615C5 4.155 5.15433 3.771 5.463 3.463C5.77167 3.155 6.156 3.00067 6.616 3H17.385C17.845 3 18.2293 3.15433 18.538 3.463C18.8467 3.77167 19.0007 4.156 19 4.616V19.385C19 19.845 18.846 20.2293 18.538 20.538C18.23 20.8467 17.8463 21.0007 17.385 21Z" fill="#35C5CF"/>
</svg>
