<svg width="186" height="35" viewBox="0 0 186 35" fill="none" xmlns="http://www.w3.org/2000/svg">
<path d="M38.195 22V7.1H41.195L46.775 14.5H45.375L50.795 7.1H53.795V22H50.695V10.52L51.935 10.8L46.195 18.2H45.795L40.255 10.8L41.295 10.52V22H38.195ZM55.9572 22V19.6L59.9572 15.48C60.7439 14.6667 61.3372 14.0267 61.7372 13.56C62.1505 13.08 62.4305 12.68 62.5772 12.36C62.7372 12.04 62.8172 11.7267 62.8172 11.42C62.8172 10.8733 62.6372 10.4467 62.2772 10.14C61.9305 9.82 61.4905 9.66 60.9572 9.66C60.4105 9.66 59.9239 9.82 59.4972 10.14C59.0705 10.4467 58.7572 10.92 58.5572 11.56L55.8572 10.68C56.0172 9.90667 56.3505 9.23333 56.8572 8.66C57.3639 8.08667 57.9772 7.64667 58.6972 7.34C59.4172 7.02 60.1705 6.86 60.9572 6.86C61.9439 6.86 62.8105 7.03333 63.5572 7.38C64.3039 7.72667 64.8839 8.21333 65.2972 8.84C65.7105 9.46667 65.9172 10.2 65.9172 11.04C65.9172 11.5733 65.8239 12.1 65.6372 12.62C65.4505 13.1267 65.1639 13.6467 64.7772 14.18C64.4039 14.7 63.9172 15.2667 63.3172 15.88L59.8972 19.4H66.0572V22H55.9572ZM68.3512 22V7.1H71.4513V13.54H77.2513V7.1H80.3513V22H77.2513V16.24H71.4513V22H68.3512ZM88.0397 22.24C86.8797 22.24 85.873 21.9867 85.0197 21.48C84.1664 20.96 83.5064 20.2667 83.0397 19.4C82.573 18.5333 82.3397 17.5733 82.3397 16.52C82.3397 15.4267 82.5797 14.4533 83.0597 13.6C83.553 12.7467 84.213 12.0733 85.0397 11.58C85.8664 11.0867 86.7997 10.84 87.8397 10.84C88.7064 10.84 89.473 10.98 90.1397 11.26C90.8064 11.5267 91.3664 11.9067 91.8197 12.4C92.2864 12.8933 92.6397 13.4667 92.8797 14.12C93.1197 14.76 93.2397 15.46 93.2397 16.22C93.2397 16.4333 93.2264 16.6467 93.1997 16.86C93.1864 17.06 93.153 17.2333 93.0997 17.38H84.9197V15.18H91.3997L89.9797 16.22C90.113 15.6467 90.1064 15.14 89.9597 14.7C89.813 14.2467 89.553 13.8933 89.1797 13.64C88.8197 13.3733 88.373 13.24 87.8397 13.24C87.3197 13.24 86.873 13.3667 86.4997 13.62C86.1264 13.8733 85.8464 14.2467 85.6597 14.74C85.473 15.2333 85.3997 15.8333 85.4397 16.54C85.3864 17.1533 85.4597 17.6933 85.6597 18.16C85.8597 18.6267 86.1664 18.9933 86.5797 19.26C86.993 19.5133 87.493 19.64 88.0797 19.64C88.613 19.64 89.0664 19.5333 89.4397 19.32C89.8264 19.1067 90.1264 18.8133 90.3397 18.44L92.7397 19.58C92.5264 20.1133 92.1864 20.58 91.7197 20.98C91.2664 21.38 90.7264 21.6933 90.0997 21.92C89.473 22.1333 88.7864 22.24 88.0397 22.24ZM98.3863 22.24C97.5996 22.24 96.9196 22.1133 96.3463 21.86C95.7729 21.6067 95.3329 21.2467 95.0263 20.78C94.7196 20.3 94.5662 19.7333 94.5662 19.08C94.5662 18.4667 94.7063 17.9267 94.9863 17.46C95.2663 16.98 95.6929 16.58 96.2663 16.26C96.8529 15.94 97.5796 15.7133 98.4463 15.58L101.786 15.04V17.24L98.9863 17.74C98.5596 17.82 98.2329 17.96 98.0063 18.16C97.7796 18.3467 97.6663 18.62 97.6663 18.98C97.6663 19.3133 97.7929 19.5733 98.0463 19.76C98.2996 19.9467 98.6129 20.04 98.9863 20.04C99.4796 20.04 99.9129 19.9333 100.286 19.72C100.66 19.5067 100.946 19.22 101.146 18.86C101.36 18.4867 101.466 18.08 101.466 17.64V14.8C101.466 14.3867 101.3 14.04 100.966 13.76C100.646 13.48 100.206 13.34 99.6463 13.34C99.1129 13.34 98.6396 13.4867 98.2263 13.78C97.8263 14.0733 97.5329 14.46 97.3463 14.94L94.9463 13.8C95.1596 13.1867 95.4996 12.66 95.9663 12.22C96.4329 11.78 96.9929 11.44 97.6463 11.2C98.2996 10.96 99.0129 10.84 99.7862 10.84C100.706 10.84 101.52 11.0067 102.226 11.34C102.933 11.6733 103.48 12.14 103.866 12.74C104.266 13.3267 104.466 14.0133 104.466 14.8V22H101.666V20.24L102.346 20.12C102.026 20.6 101.673 21 101.286 21.32C100.9 21.6267 100.466 21.8533 99.9863 22C99.5063 22.16 98.9729 22.24 98.3863 22.24ZM106.666 22V6.86H109.666V22H106.666ZM117.122 22.12C115.802 22.12 114.775 21.7667 114.042 21.06C113.322 20.34 112.962 19.34 112.962 18.06V13.68H111.122V11.08H111.222C111.782 11.08 112.208 10.94 112.502 10.66C112.808 10.38 112.962 9.96 112.962 9.4V8.6H115.962V11.08H118.522V13.68H115.962V17.86C115.962 18.2333 116.028 18.5467 116.162 18.8C116.295 19.04 116.502 19.22 116.782 19.34C117.062 19.46 117.408 19.52 117.822 19.52C117.915 19.52 118.022 19.5133 118.142 19.5C118.262 19.4867 118.388 19.4733 118.522 19.46V22C118.322 22.0267 118.095 22.0533 117.842 22.08C117.588 22.1067 117.348 22.12 117.122 22.12ZM120.28 22V6.86H123.28V13.24L122.92 12.76C123.173 12.1067 123.58 11.6267 124.14 11.32C124.713 11 125.38 10.84 126.14 10.84C126.966 10.84 127.686 11.0133 128.3 11.36C128.926 11.7067 129.413 12.1933 129.76 12.82C130.106 13.4333 130.28 14.1533 130.28 14.98V22H127.28V15.62C127.28 15.1933 127.193 14.8267 127.02 14.52C126.86 14.2133 126.626 13.9733 126.32 13.8C126.026 13.6267 125.68 13.54 125.28 13.54C124.893 13.54 124.546 13.6267 124.24 13.8C123.933 13.9733 123.693 14.2133 123.52 14.52C123.36 14.8267 123.28 15.1933 123.28 15.62V22H120.28ZM143.146 22.24C142.079 22.24 141.086 22.0467 140.166 21.66C139.259 21.2733 138.466 20.7333 137.786 20.04C137.106 19.3467 136.573 18.5333 136.186 17.6C135.813 16.6667 135.626 15.6467 135.626 14.54C135.626 13.4333 135.813 12.4133 136.186 11.48C136.559 10.5333 137.086 9.72 137.766 9.04C138.446 8.34667 139.239 7.81333 140.146 7.44C141.066 7.05333 142.066 6.86 143.146 6.86C144.226 6.86 145.193 7.04 146.046 7.4C146.913 7.76 147.646 8.24 148.246 8.84C148.846 9.44 149.273 10.1067 149.526 10.84L146.786 12.16C146.533 11.44 146.086 10.8467 145.446 10.38C144.819 9.9 144.053 9.66 143.146 9.66C142.266 9.66 141.493 9.86667 140.826 10.28C140.159 10.6933 139.639 11.2667 139.266 12C138.906 12.72 138.726 13.5667 138.726 14.54C138.726 15.5133 138.906 16.3667 139.266 17.1C139.639 17.8333 140.159 18.4067 140.826 18.82C141.493 19.2333 142.266 19.44 143.146 19.44C144.053 19.44 144.819 19.2067 145.446 18.74C146.086 18.26 146.533 17.66 146.786 16.94L149.526 18.26C149.273 18.9933 148.846 19.66 148.246 20.26C147.646 20.86 146.913 21.34 146.046 21.7C145.193 22.06 144.226 22.24 143.146 22.24ZM154.48 22.24C153.693 22.24 153.013 22.1133 152.44 21.86C151.867 21.6067 151.427 21.2467 151.12 20.78C150.813 20.3 150.66 19.7333 150.66 19.08C150.66 18.4667 150.8 17.9267 151.08 17.46C151.36 16.98 151.787 16.58 152.36 16.26C152.947 15.94 153.673 15.7133 154.54 15.58L157.88 15.04V17.24L155.08 17.74C154.653 17.82 154.327 17.96 154.1 18.16C153.873 18.3467 153.76 18.62 153.76 18.98C153.76 19.3133 153.887 19.5733 154.14 19.76C154.393 19.9467 154.707 20.04 155.08 20.04C155.573 20.04 156.007 19.9333 156.38 19.72C156.753 19.5067 157.04 19.22 157.24 18.86C157.453 18.4867 157.56 18.08 157.56 17.64V14.8C157.56 14.3867 157.393 14.04 157.06 13.76C156.74 13.48 156.3 13.34 155.74 13.34C155.207 13.34 154.733 13.4867 154.32 13.78C153.92 14.0733 153.627 14.46 153.44 14.94L151.04 13.8C151.253 13.1867 151.593 12.66 152.06 12.22C152.527 11.78 153.087 11.44 153.74 11.2C154.393 10.96 155.107 10.84 155.88 10.84C156.8 10.84 157.613 11.0067 158.32 11.34C159.027 11.6733 159.573 12.14 159.96 12.74C160.36 13.3267 160.56 14.0133 160.56 14.8V22H157.76V20.24L158.44 20.12C158.12 20.6 157.767 21 157.38 21.32C156.993 21.6267 156.56 21.8533 156.08 22C155.6 22.16 155.067 22.24 154.48 22.24ZM162.76 22V11.08H165.56V13.7L165.36 13.32C165.6 12.4 165.993 11.78 166.54 11.46C167.1 11.1267 167.76 10.96 168.52 10.96H169.16V13.56H168.22C167.487 13.56 166.893 13.7867 166.44 14.24C165.987 14.68 165.76 15.3067 165.76 16.12V22H162.76ZM175.735 22.24C174.575 22.24 173.568 21.9867 172.715 21.48C171.862 20.96 171.202 20.2667 170.735 19.4C170.268 18.5333 170.035 17.5733 170.035 16.52C170.035 15.4267 170.275 14.4533 170.755 13.6C171.248 12.7467 171.908 12.0733 172.735 11.58C173.562 11.0867 174.495 10.84 175.535 10.84C176.402 10.84 177.168 10.98 177.835 11.26C178.502 11.5267 179.062 11.9067 179.515 12.4C179.982 12.8933 180.335 13.4667 180.575 14.12C180.815 14.76 180.935 15.46 180.935 16.22C180.935 16.4333 180.922 16.6467 180.895 16.86C180.882 17.06 180.848 17.2333 180.795 17.38H172.615V15.18H179.095L177.675 16.22C177.808 15.6467 177.802 15.14 177.655 14.7C177.508 14.2467 177.248 13.8933 176.875 13.64C176.515 13.3733 176.068 13.24 175.535 13.24C175.015 13.24 174.568 13.3667 174.195 13.62C173.822 13.8733 173.542 14.2467 173.355 14.74C173.168 15.2333 173.095 15.8333 173.135 16.54C173.082 17.1533 173.155 17.6933 173.355 18.16C173.555 18.6267 173.862 18.9933 174.275 19.26C174.688 19.5133 175.188 19.64 175.775 19.64C176.308 19.64 176.762 19.5333 177.135 19.32C177.522 19.1067 177.822 18.8133 178.035 18.44L180.435 19.58C180.222 20.1133 179.882 20.58 179.415 20.98C178.962 21.38 178.422 21.6933 177.795 21.92C177.168 22.1333 176.482 22.24 175.735 22.24Z" fill="white"/>
<g filter="url(#filter0_d_4102_5315)">
<path d="M4 11.6735C4 7.67786 7.04381 4.375 10.88 4.375C12.8604 4.375 14.631 5.26233 15.8752 6.66665C17.1218 5.26198 18.8999 4.375 20.87 4.375C24.7062 4.375 27.75 7.67786 27.75 11.6735C27.75 12.5637 27.6313 13.4699 27.4089 14.375H23.6339L22.2485 12.9896C21.796 12.5372 21.0333 12.6609 20.7471 13.2333L19.4538 15.8199L18.4528 14.8189C18.0431 14.4093 17.3637 14.4655 17.027 14.9369L14.9222 17.8836L13.5418 11.9017C13.3487 11.065 12.2258 10.9066 11.8088 11.6572L9.54672 15.729L8.46619 14.2883C8.12388 13.8318 7.45669 13.7844 7.05328 14.1878L6.24112 15H4.41036C4.14289 13.9322 4 12.8205 4 11.6735Z" fill="white"/>
<path d="M4.78652 16.25C6.47999 21.0562 10.72 24.8335 15.6534 26.7038C15.7962 26.7579 15.9538 26.7579 16.0966 26.7038C19.3412 25.4738 22.2441 23.1841 24.3374 20.4877C25.5124 18.9742 26.4451 17.3155 27.0364 15.625H23.5044C23.2558 15.625 23.0173 15.5262 22.8415 15.3504L21.6712 14.1801L20.3779 16.7667C20.0917 17.3391 19.329 17.4628 18.8765 17.0104L17.8298 15.9636L15.5365 19.1742C15.0671 19.8314 14.0417 19.627 13.8601 18.8401L12.5066 12.975L10.4054 16.7573C10.0755 17.351 9.24339 17.4079 8.83586 16.8645L7.68238 15.3265L7.03347 15.9754C6.85766 16.1512 6.6192 16.25 6.37056 16.25H4.78652Z" fill="white"/>
</g>
<defs>
<filter id="filter0_d_4102_5315" x="-3.125" y="0" width="38" height="38" filterUnits="userSpaceOnUse" color-interpolation-filters="sRGB">
<feFlood flood-opacity="0" result="BackgroundImageFix"/>
<feColorMatrix in="SourceAlpha" type="matrix" values="0 0 0 0 0 0 0 0 0 0 0 0 0 0 0 0 0 0 127 0" result="hardAlpha"/>
<feOffset dy="4"/>
<feGaussianBlur stdDeviation="2"/>
<feComposite in2="hardAlpha" operator="out"/>
<feColorMatrix type="matrix" values="0 0 0 0 0 0 0 0 0 0 0 0 0 0 0 0 0 0 0.25 0"/>
<feBlend mode="normal" in2="BackgroundImageFix" result="effect1_dropShadow_4102_5315"/>
<feBlend mode="normal" in="SourceGraphic" in2="effect1_dropShadow_4102_5315" result="shape"/>
</filter>
</defs>
</svg>
