<svg width="20" height="20" viewBox="0 0 20 20" fill="none" xmlns="http://www.w3.org/2000/svg">
<path d="M17.8574 17.8571C17.8574 18.236 17.7068 18.5994 17.4389 18.8673C17.171 19.1352 16.8077 19.2857 16.4288 19.2857H3.57164C3.19276 19.2857 2.82939 19.1352 2.56149 18.8673C2.29358 18.5994 2.14307 18.236 2.14307 17.8571V2.14285C2.14307 1.76397 2.29358 1.40061 2.56149 1.1327C2.82939 0.864789 3.19276 0.714279 3.57164 0.714279H12.8574L17.8574 5.71428V17.8571Z" stroke="#35C5CF" stroke-linecap="round" stroke-linejoin="round"/>
<path d="M9.00461 6.8157C8.8417 6.8157 8.68545 6.88042 8.57025 6.99562C8.45505 7.11083 8.39033 7.26707 8.39033 7.42999V9.1557H6.66604C6.50337 9.1557 6.34734 9.22023 6.23218 9.33512C6.11702 9.45001 6.05214 9.60589 6.05176 9.76856V11.7614C6.05176 12.1014 6.32747 12.3757 6.66604 12.3757H8.39033V14.1C8.39033 14.44 8.66604 14.7143 9.00461 14.7143H10.9975C11.1604 14.7143 11.3166 14.6496 11.4318 14.5344C11.547 14.4192 11.6118 14.2629 11.6118 14.1V12.3757H13.336C13.499 12.3757 13.6552 12.311 13.7704 12.1958C13.8856 12.0806 13.9503 11.9243 13.9503 11.7614V9.76856C13.9503 9.60564 13.8856 9.4494 13.7704 9.3342C13.6552 9.219 13.499 9.15428 13.336 9.15428H11.6118V7.43142C11.6118 7.2685 11.547 7.11225 11.4318 6.99705C11.3166 6.88185 11.1604 6.81713 10.9975 6.81713L9.00461 6.8157Z" stroke="#35C5CF" stroke-linecap="round" stroke-linejoin="round"/>
</svg>
