<svg width="20" height="20" viewBox="0 0 20 20" fill="none" xmlns="http://www.w3.org/2000/svg">
<path d="M1.68179 16.9208C2.62262 18.2667 6.71596 19.3225 8.65012 16.8042C10.7418 17.8042 14.191 17.4942 17.0001 15.9275C17.3901 15.7108 17.7593 15.4358 17.986 15.0492C18.4968 14.1783 18.5085 12.97 17.5768 11.1875C16.0226 7.30916 13.2285 3.90416 12.1001 2.535C11.8685 2.32416 10.391 2.02416 9.48929 1.735C9.09096 1.6125 8.35012 1.53083 7.46429 2.69916C7.04346 3.2525 5.13429 4.61333 7.55596 5.5275C7.93179 5.62333 8.20762 5.79916 9.92012 5.48666C10.1426 5.44833 10.6993 5.48666 11.0918 6.175L11.9118 7.3475C11.9885 7.45612 12.0369 7.58214 12.0526 7.71416C12.196 8.96333 12.191 10.5267 12.8876 11.3192C11.8126 10.5408 9.00096 9.6175 6.88262 12.2458M1.66846 10.7833C2.62207 9.93336 3.83782 9.43531 5.11367 9.37194C6.38953 9.30858 7.64865 9.68371 8.68179 10.435" stroke="#35C5CF" stroke-width="1.5" stroke-linecap="round" stroke-linejoin="round"/>
</svg>
