<svg width="24" height="24" viewBox="0 0 24 24" fill="none" xmlns="http://www.w3.org/2000/svg">
<path d="M9.03304 8.1075C8.22454 8.1745 7.56004 8.7075 7.30454 9.4775C6.73167 11.2138 6.33566 13.0036 6.12254 14.8195C6.03104 15.617 6.62854 16.309 7.43004 16.3595C7.75204 16.3795 8.12204 16.4005 8.53354 16.4195L8.90654 21.0825C8.96154 21.7685 9.47654 22.3295 10.1615 22.399C10.6915 22.4525 11.3455 22.5 12 22.5C12.6545 22.5 13.309 22.4525 13.8385 22.399C14.5235 22.329 15.0385 21.769 15.0935 21.0825L15.4665 16.4195C15.878 16.4005 16.2485 16.3795 16.5705 16.3595C17.3715 16.309 17.9695 15.617 17.8775 14.8195C17.6646 13.0036 17.2687 11.2138 16.696 9.4775C16.44 8.7075 15.7755 8.1745 14.967 8.1075C14.283 8.05 13.308 8 12 8C10.692 8 9.71704 8.0505 9.03304 8.1075Z" stroke="#35C5CF" stroke-width="1.5" stroke-linecap="round" stroke-linejoin="round"/>
<path d="M12 17.5V22.5M8.75 4.75C8.75 5.61195 9.09241 6.4386 9.7019 7.0481C10.3114 7.65759 11.138 8 12 8C12.862 8 13.6886 7.65759 14.2981 7.0481C14.9076 6.4386 15.25 5.61195 15.25 4.75C15.25 3.88805 14.9076 3.0614 14.2981 2.4519C13.6886 1.84241 12.862 1.5 12 1.5C11.138 1.5 10.3114 1.84241 9.7019 2.4519C9.09241 3.0614 8.75 3.88805 8.75 4.75Z" stroke="#35C5CF" stroke-width="1.5" stroke-linecap="round" stroke-linejoin="round"/>
</svg>
